<svg width="30" height="30" viewBox="0 0 30 30" fill="none" xmlns="http://www.w3.org/2000/svg">
<path d="M25.666 14.5865L24.7343 13.606C24.4891 13.3608 24.0967 13.3608 23.9006 13.606L16.2504 21.2048L16.2504 4.43828C16.2504 4.14412 16.0052 3.84998 15.6619 3.84998L14.2888 3.84998C13.9946 3.84998 13.7004 4.14412 13.7004 4.43828L13.7004 21.2048L6.09922 13.606C5.90307 13.3608 5.51075 13.3608 5.26555 13.606L4.3338 14.5865C4.0886 14.7826 4.0886 15.1748 4.3338 15.4199L14.5831 25.6661C14.8283 25.9113 15.1715 25.9113 15.4167 25.6661L25.666 15.4199C25.9112 15.1748 25.9112 14.7826 25.666 14.5865Z" fill="black"/>
</svg>
