<svg width="30" height="30" xmlns="http://www.w3.org/2000/svg">
    <path d="M26.268 27.05h-6.43c.007-.196.02-.388.02-.583.002-2.853.007-5.706-.005-8.556-.003-.365.11-.49.475-.48.737.023 1.475-.007 2.213.013.37.01.555-.098.595-.498.095-.94.227-1.875.347-2.813.078-.632.078-.632-.572-.632-.89 0-1.78-.003-2.67 0-.21 0-.388-.005-.383-.298.012-.847-.018-1.697.027-2.545.038-.74.448-1.157 1.183-1.212.747-.058 1.5-.053 2.25-.058.285-.002.398-.107.395-.395-.01-.918-.012-1.838.003-2.755.005-.31-.128-.415-.42-.428-.848-.03-1.695-.102-2.543-.11-.958-.005-1.883.183-2.725.66-1.455.825-2.078 2.165-2.21 3.753-.083.983-.06 1.973-.06 2.96 0 .325-.103.438-.435.428-.793-.02-1.586.005-2.378-.013-.333-.007-.443.125-.44.438.007 1.015.01 2.03 0 3.048-.005.345.14.465.475.46.75-.013 1.502.015 2.252-.01.398-.013.53.117.528.52-.015 3.032-.01 6.065-.01 9.098H3.727c-.033-.025-.063-.06-.098-.075-.88-.363-1.12-.72-1.12-1.675-.005-7.213-.002-14.431-.01-21.652 0-.665.24-1.152.833-1.46.082-.045.15-.12.225-.18H26.35c.967.393 1.152 1.158 1.15 2.12-.025 7.058-.013 14.119-.015 21.177 0 .18-.008.36-.035.537-.108.685-.613.983-1.183 1.215Z"/>
</svg>
