<svg width="30" height="30" viewBox="0 0 30 30" fill="none" xmlns="http://www.w3.org/2000/svg">
<path d="M12.17 25.3355C12.0076 25.2103 11.8326 25.1101 11.6952 24.9723C10.2208 23.532 8.74632 22.0791 7.27189 20.6263C7.07197 20.4259 6.94702 20.2005 7.02199 19.9249C7.13445 19.474 7.65924 19.2737 8.04659 19.5241C8.12157 19.5742 8.19654 19.6494 8.27151 19.712C9.34609 20.7766 10.4207 21.8412 11.5078 22.9058C11.5452 22.9433 11.5952 22.9934 11.6827 23.0686C11.6827 22.9559 11.6827 22.8682 11.6827 22.793C11.6827 19.449 11.6827 16.105 11.6827 12.7484C11.6827 12.2975 11.9826 11.9969 12.3949 12.022C12.7073 12.0345 12.9697 12.285 13.0072 12.5981C13.0197 12.7108 13.0197 12.8235 13.0197 12.9363C13.0197 16.2177 13.0197 19.4991 13.0197 22.793C13.0197 22.8682 13.0197 22.9559 13.0197 23.0811C13.1071 22.9934 13.1696 22.9433 13.2196 22.8932C14.2942 21.8412 15.3688 20.7766 16.4433 19.7245C16.5933 19.5742 16.7557 19.449 16.9806 19.449C17.268 19.4365 17.4929 19.5617 17.6179 19.8247C17.7428 20.0752 17.7054 20.3257 17.5179 20.5386C17.4679 20.6012 17.418 20.6513 17.3555 20.7014C15.8936 22.1418 14.4441 23.5821 12.9822 25.0099C12.8447 25.1476 12.6698 25.2478 12.5074 25.3606C12.3824 25.3355 12.27 25.3355 12.17 25.3355Z" fill="black"/>
<path d="M18.3298 6.28572C18.3298 6.41097 18.3298 6.48611 18.3298 6.56126C18.3298 9.9053 18.3298 13.2493 18.3298 16.6059C18.3298 17.0568 18.0549 17.3574 17.6426 17.3448C17.3052 17.3448 17.0303 17.0944 16.9928 16.7562C16.9803 16.656 16.9803 16.5433 16.9803 16.4431C16.9803 13.1617 16.9803 9.88025 16.9803 6.58631C16.9803 6.51116 16.9803 6.42349 16.9803 6.34834C16.9429 6.32329 16.9179 6.29824 16.8804 6.2732C16.8429 6.33582 16.8304 6.42349 16.7804 6.47359C15.7058 7.53817 14.6438 8.59023 13.5567 9.64228C13.4192 9.78005 13.2318 9.88025 13.0444 9.91782C12.782 9.98045 12.5196 9.81763 12.3946 9.57966C12.2697 9.3417 12.3072 9.04111 12.4821 8.84072C12.5321 8.79062 12.582 8.74052 12.632 8.69042C14.094 7.22506 15.5809 5.77222 17.0553 4.31937C17.4926 3.89354 17.8175 3.89354 18.2549 4.31937C19.7418 5.77222 21.2287 7.25011 22.7156 8.70295C22.928 8.90334 23.053 9.12878 22.978 9.42937C22.8656 9.88025 22.3283 10.0806 21.9409 9.81763C21.866 9.76753 21.791 9.69238 21.7285 9.62976C20.6539 8.56518 19.5793 7.5006 18.4923 6.43601C18.4548 6.39844 18.4173 6.36087 18.3298 6.28572Z" fill="black"/>
</svg>
